<svg width="32" height="32" viewBox="0 0 32 32" fill="none" xmlns="http://www.w3.org/2000/svg">
<g clip-path="url(#clip0_50_2)">
<rect width="32" height="32" fill="white"/>
<rect width="32" height="32" fill="black"/>
<path d="M12.4812 14.3087C12.4812 14.2362 12.5405 14.1786 12.6123 14.1763C14.3951 14.1221 15.9215 12.5961 16.0104 10.812C16.0138 10.7395 16.0719 10.6819 16.1437 10.6819C16.2156 10.6819 16.2726 10.7418 16.2748 10.8143C16.3284 12.6007 17.824 14.1578 19.6068 14.2477C19.6786 14.2511 19.7356 14.3099 19.7356 14.3824C19.7356 14.455 19.6763 14.5126 19.6045 14.5149C17.8365 14.569 16.2931 16.0801 16.2042 17.8814C16.2007 17.954 16.1426 18.0116 16.0708 18.0116C15.999 18.0116 15.942 17.9517 15.9397 17.8791C15.8861 16.0766 14.3746 14.5333 12.61 14.4435C12.5382 14.44 12.4812 14.3813 12.4812 14.3087Z" fill="white"/>
<path d="M26.3574 13.5785C26.0724 13.5197 25.7749 13.4656 25.4717 13.4138C24.4195 9.0118 21.034 6 16.1084 6C11.1829 6 7.82013 8.98877 6.75431 13.3642L6.72694 13.5128C2.71331 14.2499 0.210057 15.4869 0.218037 17.0798C0.227156 18.7129 2.87518 19.9441 7.08032 20.6271L7.12021 20.7596C8.47557 24.4705 11.6662 26.9202 16.1096 26.9202C20.553 26.9202 23.8735 24.3657 25.1787 20.5258C25.4877 20.4716 25.7909 20.4164 26.0827 20.3565C29.7486 19.609 32.008 18.4169 32 16.9047C31.992 15.4351 29.8501 14.2914 26.3585 13.5785H26.3574ZM3.58306 17.0613C3.57851 16.1491 4.65458 15.4224 6.48528 14.8926C6.42601 15.4017 6.39409 15.9234 6.39409 16.4601C6.39409 17.4356 6.49896 18.3674 6.68933 19.2485C4.74236 18.736 3.58877 18.0035 3.58421 17.0613H3.58306ZM8.94636 16.4601C8.94636 15.7207 9.01134 15.0112 9.13331 14.3375C9.14015 14.2983 9.14584 14.2568 9.15382 14.2177L9.43652 13.1189L9.46046 13.0279C10.4111 10.1244 12.6705 8.18831 16.1073 8.18831C19.5441 8.18831 21.865 10.1762 22.794 13.1466L23.095 14.3962C23.2101 15.0527 23.2682 15.7426 23.2682 16.4613C23.2682 17.5669 23.1292 18.607 22.8579 19.5525L22.8066 19.6919C20.8938 19.9603 18.6162 20.1065 16.1244 20.1204C13.9916 20.1319 12.0196 20.0455 10.2983 19.8647C9.99736 19.8336 9.70668 19.7979 9.42056 19.761C9.10822 18.7613 8.94636 17.6499 8.94636 16.4624V16.4601ZM16.1073 24.7054C13.1572 24.7054 11.0746 23.2899 9.9415 21.0567L9.91073 20.9819C10.1991 21.0083 10.4898 21.0337 10.7873 21.0567C12.4413 21.1823 14.2344 21.2433 16.1301 21.2329C18.3643 21.2203 20.4549 21.1109 22.3415 20.9151C21.2255 23.2289 19.119 24.7054 16.1073 24.7054ZM26.4532 18.8696C26.1705 18.9709 25.8638 19.0654 25.5355 19.154L25.6062 18.8696C25.7464 18.1013 25.8216 17.2963 25.8216 16.4613C25.8216 15.9833 25.7954 15.5168 25.7487 15.0596L25.7031 14.7786C26.0234 14.8661 26.3209 14.9594 26.5945 15.0596C27.9134 15.541 28.6703 16.1641 28.6749 16.9243C28.6794 17.7144 27.8655 18.3651 26.452 18.8696H26.4532Z" fill="white"/>
</g>
<defs>
<clipPath id="clip0_50_2">
<rect width="32" height="32" fill="white"/>
</clipPath>
</defs>
</svg>
