<svg width="183" height="56" viewBox="0 0 183 56" fill="none" xmlns="http://www.w3.org/2000/svg">
<g clip-path="url(#clip0_1_59)">
<path d="M27.7535 48.9896H27.6737C25.2006 52.2115 20.9747 55.597 13.9565 55.597C6.14059 55.597 0 51.8914 0 43.9944C0 34.1652 7.65639 32.15 17.9431 30.5379C23.7646 29.6512 27.831 29.087 27.831 24.5754C27.831 20.0638 24.4803 17.2426 18.579 17.2426C11.88 17.2426 8.5316 20.1444 8.29227 26.4294H2.07424C2.31358 18.3711 7.57661 12.328 18.5016 12.328C27.2748 12.328 33.7346 15.6329 33.7346 25.5427V45.3647C33.7346 48.7502 34.5323 50.6017 38.12 49.7957H38.3594V54.5491C37.5616 54.8715 36.5245 55.1939 34.8491 55.1939C30.6232 55.1939 28.3894 53.2594 27.7512 48.9896H27.7535ZM27.9131 39.3998V32.3089C25.7591 33.6792 22.0118 34.7271 18.5016 35.3695C12.0419 36.5786 6.8586 37.7071 6.8586 43.8308C6.8586 49.3903 11.1643 50.5994 15.3925 50.5994C24.0063 50.5994 27.9131 44.2338 27.9131 39.3998Z" fill="black"/>
<path d="M40.5134 41.2562H47.1327C48.0103 48.5084 52.7946 50.5212 58.9352 50.5212C65.714 50.5212 68.5063 47.5387 68.5063 43.672C68.5063 38.9992 65.3151 37.7901 57.7409 36.178C49.6058 34.4853 42.3483 32.7949 42.3483 23.6888C42.3483 16.759 47.6114 12.2474 57.1824 12.2474C67.3894 12.2474 72.4154 17.162 73.3728 25.3009H66.7535C66.1153 19.8221 63.1658 17.4039 57.0252 17.4039C50.8846 17.4039 48.7306 20.0639 48.7306 23.3664C48.7306 27.8779 52.7172 28.7646 59.8151 30.2155C68.1097 31.9082 75.0481 33.7598 75.0481 43.3496C75.0481 51.7303 68.2693 56 58.7803 56C47.4565 56 41.1563 50.6018 40.5181 41.2538L40.5134 41.2562Z" fill="black"/>
<path d="M77.8357 13.1341H83.8167V0H90.2764V13.1341H98.2519V18.4517H90.2764V45.5259C90.2764 48.4278 91.7922 49.3927 94.4226 49.3927C95.699 49.3927 97.135 49.0702 97.853 48.8284H98.0924V54.4685C96.5766 54.7909 94.8215 55.0327 92.9091 55.0327C87.6461 55.0327 83.8167 52.8564 83.8167 46.9745V18.4493H77.8357V13.1317V13.1341Z" fill="black"/>
<path d="M111.408 20.0638H111.568C114.041 16.0359 118.347 12.6504 123.849 12.6504C125.046 12.6504 125.684 12.8116 126.482 13.134V19.4189H126.242C125.285 19.0965 124.647 19.0159 123.37 19.0159C116.99 19.0159 111.408 23.8499 111.408 31.6664V54.7909H104.949V13.134H111.408V20.0638Z" fill="black"/>
<path d="M142.461 29.6465C142.461 29.4971 142.583 29.3786 142.731 29.3738C146.401 29.2624 149.542 26.1211 149.725 22.4488C149.733 22.2994 149.852 22.1809 150 22.1809C150.148 22.1809 150.265 22.3042 150.27 22.4535C150.38 26.1306 153.459 29.3359 157.128 29.5208C157.276 29.5279 157.394 29.6488 157.394 29.7982C157.394 29.9476 157.272 30.0661 157.124 30.0708C153.484 30.1823 150.307 33.2927 150.124 37.0006C150.117 37.15 149.998 37.2685 149.85 37.2685C149.702 37.2685 149.585 37.1452 149.58 36.9959C149.47 33.2856 146.358 30.1088 142.726 29.9239C142.578 29.9167 142.461 29.7958 142.461 29.6465Z" fill="black"/>
<path d="M171.024 28.1434C170.437 28.0225 169.825 27.911 169.201 27.8044C167.035 18.7433 160.066 12.5437 149.927 12.5437C139.788 12.5437 132.866 18.6959 130.672 27.7024L130.616 28.0082C122.354 29.5255 117.202 32.0717 117.218 35.3505C117.237 38.7123 122.688 41.2466 131.344 42.6525L131.426 42.9251C134.216 50.5638 140.783 55.6064 149.93 55.6064C159.076 55.6064 165.911 50.348 168.598 42.4439C169.234 42.3324 169.858 42.2187 170.458 42.0954C178.005 40.5567 182.655 38.103 182.639 34.9902C182.622 31.9651 178.213 29.6109 171.026 28.1434H171.024ZM124.145 35.3126C124.135 33.4349 126.35 31.939 130.119 30.8484C129.997 31.8963 129.931 32.9703 129.931 34.075C129.931 36.0831 130.147 38.001 130.539 39.8147C126.531 38.7597 124.156 37.2519 124.147 35.3126H124.145ZM135.185 34.075C135.185 32.553 135.318 31.0926 135.569 29.7057C135.584 29.6251 135.595 29.5398 135.612 29.4592L136.194 27.1974L136.243 27.0102C138.2 21.0334 142.85 17.0482 149.925 17.0482C156.999 17.0482 161.777 21.1401 163.689 27.2543L164.308 29.8266C164.545 31.178 164.665 32.5981 164.665 34.0774C164.665 36.3534 164.379 38.4942 163.82 40.4406L163.715 40.7274C159.778 41.2798 155.089 41.5809 149.96 41.6094C145.57 41.6331 141.511 41.4553 137.967 41.083C137.348 41.019 136.75 40.9455 136.161 40.8697C135.518 38.8119 135.185 36.5241 135.185 34.0798V34.075ZM149.925 51.0474C143.852 51.0474 139.565 48.1337 137.233 43.5368L137.17 43.3827C137.763 43.4372 138.362 43.4894 138.974 43.5368C142.379 43.7952 146.07 43.9209 149.972 43.8995C154.571 43.8734 158.874 43.6482 162.757 43.2452C160.46 48.0081 156.124 51.0474 149.925 51.0474ZM171.221 39.0347C170.639 39.2433 170.008 39.4377 169.332 39.6203L169.478 39.0347C169.766 37.4534 169.921 35.7962 169.921 34.0774C169.921 33.0936 169.867 32.1334 169.771 31.1922L169.677 30.6137C170.336 30.7939 170.949 30.9859 171.512 31.1922C174.227 32.1832 175.785 33.4658 175.794 35.0305C175.804 36.6568 174.128 37.9963 171.219 39.0347H171.221Z" fill="black"/>
</g>
<defs>
<clipPath id="clip0_1_59">
<rect width="182.636" height="56" fill="white"/>
</clipPath>
</defs>
</svg>
